# xmcd
#
# Track frame offsets:
#	150
#	28901
#	45786
#	75926
#	107301
#	141135
#	168645
#	192747
#	230924
#	248247
#	271042
#	297404
#
# Disc length: 4285 seconds
#
# Revision: 1
# Processed by: cddbd v1.5.2PL0 Copyright (c) Steve Scherf et al.
# Submitted via: audiograbber 1.83.01
#
DISCID=a210bb0c
DTITLE=Grateful Dead - 74-05-14 Adams Field House, Missoula MT
DYEAR=1900
DGENRE=
TTITLE0=Bertha
TTITLE1=Me and My Uncle
TTITLE2=Loser
TTITLE3=Black Throated Wind
TTITLE4=Scarlet Begonias
TTITLE5=It Must Have Been The Roses
TTITLE6=Jack Straw
TTITLE7=Tennessee Jed
TTITLE8=Mexicali Blues
TTITLE9=Deal
TTITLE10=Big River
TTITLE11=Brown Eyed Women
EXTD=
EXTT0=
EXTT1=
EXTT2=
EXTT3=
EXTT4=
EXTT5=
EXTT6=
EXTT7=
EXTT8=
EXTT9=
EXTT10=
EXTT11=
PLAYORDER=
